<mxfile host="65bd71144e">
    <diagram id="xgsfbiP19f9Nw5WbD5QV" name="Page-1">
        <mxGraphModel dx="803" dy="714" grid="1" gridSize="10" guides="1" tooltips="1" connect="1" arrows="1" fold="1" page="1" pageScale="1" pageWidth="827" pageHeight="1169" math="0" shadow="0">
            <root>
                <mxCell id="0"/>
                <mxCell id="1" parent="0"/>
                <mxCell id="3" value="" style="rounded=1;whiteSpace=wrap;html=1;fillColor=#f5f5f5;fontColor=#333333;strokeColor=#666666;" vertex="1" parent="1">
                    <mxGeometry x="40" y="100" width="820" height="500" as="geometry"/>
                </mxCell>
                <mxCell id="12" value="" style="shape=image;verticalLabelPosition=bottom;labelBackgroundColor=default;verticalAlign=top;aspect=fixed;imageAspect=0;image=https://jira.law.nyu.edu/images/atlassian-jira-logo-large.png;" vertex="1" parent="1">
                    <mxGeometry x="220" y="110" width="102" height="40" as="geometry"/>
                </mxCell>
                <mxCell id="41" value="" style="edgeStyle=none;html=1;strokeColor=#000000;fontFamily=Comic Sans MS;fontSize=10;fontColor=#000000;" edge="1" parent="1" source="13" target="17">
                    <mxGeometry relative="1" as="geometry"/>
                </mxCell>
                <mxCell id="13" value="Dev" style="shape=umlActor;verticalLabelPosition=bottom;verticalAlign=top;html=1;outlineConnect=0;fontSize=23;fontColor=#000000;strokeColor=#000000;" vertex="1" parent="1">
                    <mxGeometry x="256" y="250" width="30" height="60" as="geometry"/>
                </mxCell>
                <mxCell id="14" value="" style="endArrow=classic;html=1;fontSize=23;fontColor=#000000;exitX=0.5;exitY=1;exitDx=0;exitDy=0;entryX=0.5;entryY=0;entryDx=0;entryDy=0;entryPerimeter=0;strokeColor=#000000;" edge="1" parent="1" source="12" target="13">
                    <mxGeometry width="50" height="50" relative="1" as="geometry">
                        <mxPoint x="280" y="260" as="sourcePoint"/>
                        <mxPoint x="330" y="210" as="targetPoint"/>
                    </mxGeometry>
                </mxCell>
                <mxCell id="15" value="&lt;font face=&quot;Comic Sans MS&quot;&gt;assign&lt;/font&gt;" style="text;html=1;strokeColor=none;fillColor=none;align=center;verticalAlign=middle;whiteSpace=wrap;rounded=0;fontSize=23;fontColor=#000000;" vertex="1" parent="1">
                    <mxGeometry x="280" y="180" width="60" height="30" as="geometry"/>
                </mxCell>
                <mxCell id="16" value="" style="shape=image;verticalLabelPosition=bottom;labelBackgroundColor=default;verticalAlign=top;aspect=fixed;imageAspect=0;image=https://github.blog/wp-content/uploads/2024/07/github-logo.png;" vertex="1" parent="1">
                    <mxGeometry x="130.49" y="240" width="79.51" height="50" as="geometry"/>
                </mxCell>
                <mxCell id="24" style="edgeStyle=none;html=1;strokeColor=#000000;fontSize=14;fontColor=#000000;" edge="1" parent="1" source="17" target="23">
                    <mxGeometry relative="1" as="geometry"/>
                </mxCell>
                <mxCell id="17" value="feature/{task-num}_{purpose}" style="text;html=1;strokeColor=none;fillColor=none;align=center;verticalAlign=middle;whiteSpace=wrap;rounded=0;fontSize=14;fontColor=#000000;" vertex="1" parent="1">
                    <mxGeometry x="190" y="420" width="174" height="30" as="geometry"/>
                </mxCell>
                <mxCell id="18" value="" style="endArrow=classic;html=1;strokeColor=#000000;fontSize=14;fontColor=#000000;entryX=0.5;entryY=0;entryDx=0;entryDy=0;" edge="1" parent="1" source="13" target="17">
                    <mxGeometry width="50" height="50" relative="1" as="geometry">
                        <mxPoint x="240" y="430" as="sourcePoint"/>
                        <mxPoint x="290" y="380" as="targetPoint"/>
                    </mxGeometry>
                </mxCell>
                <mxCell id="20" value="&lt;font color=&quot;#000000&quot;&gt;master&lt;/font&gt;" style="rounded=1;whiteSpace=wrap;html=1;strokeColor=#d79b00;fontSize=14;fillColor=#ffe6cc;" vertex="1" parent="1">
                    <mxGeometry x="130" y="290" width="80" height="30" as="geometry"/>
                </mxCell>
                <mxCell id="21" value="" style="endArrow=none;dashed=1;html=1;dashPattern=1 3;strokeWidth=2;strokeColor=#000000;fontSize=14;fontColor=#000000;exitX=0.5;exitY=1;exitDx=0;exitDy=0;entryX=0.5;entryY=0;entryDx=0;entryDy=0;" edge="1" parent="1" source="20" target="17">
                    <mxGeometry width="50" height="50" relative="1" as="geometry">
                        <mxPoint x="260" y="470" as="sourcePoint"/>
                        <mxPoint x="310" y="420" as="targetPoint"/>
                    </mxGeometry>
                </mxCell>
                <mxCell id="22" value="feature/*&lt;br&gt;bugfig/*&lt;br&gt;hotfix/*&lt;br&gt;impl/*" style="text;html=1;strokeColor=none;fillColor=none;align=center;verticalAlign=middle;whiteSpace=wrap;rounded=0;fontSize=14;fontColor=#000000;" vertex="1" parent="1">
                    <mxGeometry x="680" y="110" width="100" height="90" as="geometry"/>
                </mxCell>
                <mxCell id="23" value="" style="shape=image;verticalLabelPosition=bottom;labelBackgroundColor=default;verticalAlign=top;aspect=fixed;imageAspect=0;image=https://github.blog/wp-content/uploads/2024/07/github-logo.png;" vertex="1" parent="1">
                    <mxGeometry x="460" y="410" width="79.51" height="50" as="geometry"/>
                </mxCell>
                <mxCell id="25" value="PR" style="text;html=1;strokeColor=none;fillColor=none;align=center;verticalAlign=middle;whiteSpace=wrap;rounded=0;fontSize=16;fontColor=#000000;" vertex="1" parent="1">
                    <mxGeometry x="374" y="405" width="60" height="30" as="geometry"/>
                </mxCell>
                <mxCell id="29" value="" style="sketch=0;pointerEvents=1;shadow=0;dashed=0;html=1;strokeColor=none;labelPosition=center;verticalLabelPosition=bottom;verticalAlign=top;align=center;fillColor=#505050;shape=mxgraph.mscae.intune.user_group;fontSize=14;fontColor=#000000;" vertex="1" parent="1">
                    <mxGeometry x="474.75" y="520" width="50" height="37" as="geometry"/>
                </mxCell>
                <mxCell id="30" value="" style="shape=doubleArrow;direction=south;whiteSpace=wrap;html=1;strokeColor=#000000;fontSize=14;fontColor=#000000;" vertex="1" parent="1">
                    <mxGeometry x="494.75" y="460" width="10" height="50" as="geometry"/>
                </mxCell>
                <mxCell id="31" value="Reviewers" style="text;html=1;strokeColor=none;fillColor=none;align=center;verticalAlign=middle;whiteSpace=wrap;rounded=0;fontSize=12;fontColor=#000000;" vertex="1" parent="1">
                    <mxGeometry x="471.51" y="555" width="60" height="30" as="geometry"/>
                </mxCell>
                <mxCell id="32" value="" style="edgeStyle=segmentEdgeStyle;endArrow=classic;html=1;curved=0;rounded=0;endSize=8;startSize=8;strokeColor=#000000;fontSize=12;fontColor=#000000;exitX=0.25;exitY=0;exitDx=0;exitDy=0;" edge="1" parent="1" source="23">
                    <mxGeometry width="50" height="50" relative="1" as="geometry">
                        <mxPoint x="450" y="370" as="sourcePoint"/>
                        <mxPoint x="310" y="270" as="targetPoint"/>
                        <Array as="points">
                            <mxPoint x="480" y="270"/>
                        </Array>
                    </mxGeometry>
                </mxCell>
                <mxCell id="33" value="Declined" style="text;html=1;strokeColor=none;fillColor=none;align=center;verticalAlign=middle;whiteSpace=wrap;rounded=0;fontSize=16;fontColor=#000000;" vertex="1" parent="1">
                    <mxGeometry x="398" y="245" width="60" height="30" as="geometry"/>
                </mxCell>
                <mxCell id="34" value="&lt;font color=&quot;#000000&quot;&gt;master&lt;/font&gt;" style="rounded=1;whiteSpace=wrap;html=1;strokeColor=#d79b00;fontSize=14;fillColor=#ffe6cc;" vertex="1" parent="1">
                    <mxGeometry x="667" y="374" width="80" height="30" as="geometry"/>
                </mxCell>
                <mxCell id="35" value="&lt;font color=&quot;#000000&quot;&gt;stage&lt;/font&gt;" style="rounded=1;whiteSpace=wrap;html=1;strokeColor=#d79b00;fontSize=14;fillColor=#ffe6cc;" vertex="1" parent="1">
                    <mxGeometry x="667" y="424" width="80" height="30" as="geometry"/>
                </mxCell>
                <mxCell id="36" value="&lt;font color=&quot;#000000&quot;&gt;dev&lt;/font&gt;" style="rounded=1;whiteSpace=wrap;html=1;strokeColor=#d79b00;fontSize=14;fillColor=#ffe6cc;" vertex="1" parent="1">
                    <mxGeometry x="667" y="474" width="80" height="30" as="geometry"/>
                </mxCell>
                <mxCell id="37" value="" style="endArrow=none;dashed=1;html=1;dashPattern=1 3;strokeWidth=2;strokeColor=#000000;fontSize=16;fontColor=#000000;entryX=0;entryY=0.5;entryDx=0;entryDy=0;exitX=1;exitY=0.25;exitDx=0;exitDy=0;" edge="1" parent="1" source="23" target="34">
                    <mxGeometry width="50" height="50" relative="1" as="geometry">
                        <mxPoint x="490" y="440" as="sourcePoint"/>
                        <mxPoint x="540" y="390" as="targetPoint"/>
                    </mxGeometry>
                </mxCell>
                <mxCell id="38" value="" style="endArrow=none;dashed=1;html=1;dashPattern=1 3;strokeWidth=2;strokeColor=#000000;fontSize=16;fontColor=#000000;entryX=0;entryY=0.5;entryDx=0;entryDy=0;exitX=1;exitY=0.5;exitDx=0;exitDy=0;" edge="1" parent="1" source="23" target="35">
                    <mxGeometry width="50" height="50" relative="1" as="geometry">
                        <mxPoint x="549.51" y="432.5" as="sourcePoint"/>
                        <mxPoint x="677" y="399.0000000000001" as="targetPoint"/>
                    </mxGeometry>
                </mxCell>
                <mxCell id="39" value="" style="endArrow=none;dashed=1;html=1;dashPattern=1 3;strokeWidth=2;strokeColor=#000000;fontSize=16;fontColor=#000000;entryX=0;entryY=0.5;entryDx=0;entryDy=0;exitX=1;exitY=0.75;exitDx=0;exitDy=0;" edge="1" parent="1" source="23" target="36">
                    <mxGeometry width="50" height="50" relative="1" as="geometry">
                        <mxPoint x="549.51" y="445" as="sourcePoint"/>
                        <mxPoint x="677" y="449" as="targetPoint"/>
                    </mxGeometry>
                </mxCell>
                <mxCell id="40" value="approved &amp;amp; merge" style="text;html=1;strokeColor=none;fillColor=none;align=center;verticalAlign=middle;whiteSpace=wrap;rounded=0;fontSize=10;fontColor=#000000;" vertex="1" parent="1">
                    <mxGeometry x="520" y="380" width="60" height="30" as="geometry"/>
                </mxCell>
                <mxCell id="42" value="pull" style="text;html=1;strokeColor=none;fillColor=none;align=center;verticalAlign=middle;whiteSpace=wrap;rounded=0;fontSize=16;fontColor=#000000;" vertex="1" parent="1">
                    <mxGeometry x="170" y="360" width="60" height="30" as="geometry"/>
                </mxCell>
            </root>
        </mxGraphModel>
    </diagram>
</mxfile>